<svg xmlns="http://www.w3.org/2000/svg" viewBox="0 0 220 55" width="220" height="55" fill="none">
  <!-- PLN UIP3B Official Vector -->
  <g transform="translate(6, 6)">
    <!-- Yellow PLN Shield -->
    <rect x="0" y="0" width="30" height="38" rx="4" fill="#FFCC00"/>
    <!-- 3 Blue Waves -->
    <path d="M 5,26 C 9,23 13,29 17,26 C 21,23 25,29 28,26" stroke="#0072CE" stroke-width="2" stroke-linecap="round"/>
    <path d="M 5,30 C 9,27 13,33 17,30 C 21,27 25,33 28,30" stroke="#0072CE" stroke-width="2" stroke-linecap="round"/>
    <path d="M 5,34 C 9,31 13,37 17,34 C 21,31 25,37 28,34" stroke="#0072CE" stroke-width="2" stroke-linecap="round"/>
    <!-- Red Lightning Bolt -->
    <polygon points="18,3 8,19 15,19 12,28 23,12 16,12" fill="#ED1B2D"/>
  </g>
  <g transform="translate(46, 8)">
    <text x="0" y="21" font-family="'Inter', 'Arial Black', sans-serif" font-size="20" font-weight="900" fill="#0072CE" letter-spacing="1">PLN</text>
    <text x="48" y="20" font-family="'Inter', 'Segoe UI', sans-serif" font-size="10" font-weight="800" fill="#0F172A" letter-spacing="0.5">UIP3B</text>
    <text x="0" y="33" font-family="'Inter', 'Segoe UI', sans-serif" font-size="7.5" font-weight="700" fill="#64748B" letter-spacing="0.8">PENYALURAN &amp; PUSAT PENGATUR BEBAN</text>
  </g>
</svg>
